<?xml version="1.0" encoding="UTF-8"?>
<svg xmlns="http://www.w3.org/2000/svg" xmlns:xlink="http://www.w3.org/1999/xlink" width="498.46pt" height="215.13pt" viewBox="0 0 498.46 215.13" version="1.1">
<defs>
<clipPath id="clip1">
  <path d="M 0 0 L 498.460938 0 L 498.460938 215.128906 L 0 215.128906 Z M 0 0 "/>
</clipPath>
</defs>
<g id="surface1">
<g clip-path="url(#clip1)" clip-rule="nonzero">
<path style=" stroke:none;fill-rule:nonzero;fill:rgb(0%,0%,0%);fill-opacity:1;" d="M 0 215.128906 L 498.457031 215.128906 L 498.457031 0 L 0 0 Z M 0 215.128906 "/>
</g>
<path style=" stroke:none;fill-rule:nonzero;fill:rgb(100%,100%,100%);fill-opacity:1;" d="M 479.6875 45.734375 L 480.886719 45.71875 L 481.320313 67.902344 L 479.980469 67.875 C 477.769531 58.863281 469.089844 50.339844 451.703125 49.4375 C 431.167969 48.367188 422.253906 60.621094 422.15625 72.199219 C 422.019531 87.625 434.03125 90.777344 451.824219 95.105469 C 460.234375 97.175781 491.3125 101.230469 488.832031 136.140625 C 487.074219 160.53125 466.027344 172.140625 436.21875 171.210938 C 436.21875 171.210938 423.808594 170.785156 406.527344 165.996094 C 403.289063 165.089844 402.480469 166.167969 401.167969 168.558594 C 401.167969 168.558594 399.734375 168.625 399.761719 168.625 L 399.800781 144.691406 L 401.195313 144.769531 C 401.878906 147.199219 402.039063 151.6875 406.410156 155.527344 C 409.660156 158.355469 417.136719 165.304688 433.601563 165.480469 C 449.820313 165.683594 463.222656 158.859375 465.03125 140.746094 C 465.511719 135.851563 464.949219 124.679688 454.066406 119.582031 C 445.539063 115.589844 421.867188 112.957031 410.359375 102.910156 C 410.359375 102.910156 396.730469 93.417969 398.914063 75.710938 C 401.917969 50.695313 422.824219 44.4375 441.582031 44.058594 C 441.582031 44.058594 458.371094 43.902344 471.714844 47.335938 C 471.714844 47.335938 475.015625 48.242188 477.769531 47.207031 C 478.828125 46.835938 479.347656 46.144531 479.6875 45.734375 "/>
<path style=" stroke:none;fill-rule:nonzero;fill:rgb(100%,100%,100%);fill-opacity:1;" d="M 370.425781 139.246094 C 370 158.125 359.105469 162.785156 352.714844 164.148438 C 345.761719 165.632813 335.773438 165.324219 328.050781 164.957031 C 320.5625 164.59375 320.9375 161.496094 320.886719 158.480469 C 320.886719 158.480469 320.90625 145.6875 321.160156 129.089844 C 321.6875 98.570313 322.527344 55.148438 322.527344 54.601563 C 322.527344 50.316406 323.515625 50.042969 327.472656 49.882813 C 329.761719 49.777344 330.976563 49.777344 336.464844 49.84375 C 343.253906 49.9375 361.785156 50.472656 362.863281 74.894531 C 363.925781 99.933594 337.675781 102.980469 331.078125 103.226563 C 330.800781 103.269531 330.644531 104.304688 331.054688 104.320313 C 351.339844 105.4375 370.976563 112.515625 370.425781 139.246094 M 362.398438 103.324219 C 364.1875 102.351563 388.460938 93.105469 386.390625 70.992188 C 383.847656 43.351563 353.824219 45.339844 343.832031 45.339844 L 289.472656 45.339844 L 289.5625 46.648438 C 295.269531 47.320313 297.976563 50.449219 297.871094 60.761719 L 297.410156 155.605469 C 297.410156 164.785156 293.523438 167.664063 288.285156 168.363281 L 288.214844 169.761719 L 360.152344 169.761719 C 369.542969 169.761719 392.890625 166.613281 394.277344 139.058594 C 394.726563 132.871094 392.875 110.882813 362.398438 103.324219 "/>
<path style=" stroke:none;fill-rule:nonzero;fill:rgb(100%,100%,100%);fill-opacity:1;" d="M 238.960938 161.703125 C 229.792969 165.011719 219.695313 165.957031 207.503906 164.769531 C 200.804688 164.117188 200.609375 160.265625 200.527344 158.648438 C 199.851563 146.9375 200.070313 65.828125 200.738281 55.398438 C 201.101563 49.847656 202.265625 50.011719 207.441406 50.050781 C 212.308594 50.078125 218.089844 50.476563 218.089844 50.476563 C 248.746094 52.722656 260.257813 76.410156 262.542969 106.574219 C 264.871094 137.765625 250.527344 157.539063 238.960938 161.703125 M 227.097656 45.351563 C 221.308594 45.386719 168.632813 45.351563 168.632813 45.351563 L 168.703125 46.699219 C 172.949219 47.386719 176.371094 50.222656 176.800781 54.589844 C 178.148438 68.609375 178.609375 153.683594 176.460938 163.011719 C 175.773438 165.449219 171.679688 167.753906 167.960938 168.382813 L 167.890625 169.765625 C 167.890625 169.765625 221.167969 169.753906 233.257813 169.753906 C 259.015625 169.753906 286.871094 145.976563 286.972656 107.378906 C 287.0625 63 252.984375 45.230469 227.097656 45.351563 "/>
<path style=" stroke:none;fill-rule:nonzero;fill:rgb(92.96875%,10.984802%,14.109802%);fill-opacity:1;" d="M 122.992188 151.28125 L 89.136719 122.867188 C 89.136719 122.867188 84.554688 118.417969 79.390625 118.417969 C 74.207031 118.417969 69.632813 122.867188 69.632813 122.867188 L 35.769531 151.28125 L 35.65625 151.175781 L 64.078125 117.324219 C 64.078125 117.324219 68.539063 112.738281 68.539063 107.5625 C 68.539063 102.398438 64.078125 97.816406 64.078125 97.816406 L 35.65625 63.957031 L 35.769531 63.828125 L 69.632813 92.253906 C 69.632813 92.253906 74.207031 96.722656 79.390625 96.722656 C 84.554688 96.722656 89.136719 92.253906 89.136719 92.253906 L 122.976563 63.851563 L 123.089844 63.964844 L 94.691406 97.816406 C 94.691406 97.816406 90.210938 102.386719 90.210938 107.5625 C 90.210938 112.738281 94.691406 117.324219 94.691406 117.324219 L 123.089844 151.160156 Z M 138.820313 107.5625 C 138.820313 98.355469 139.164063 90.144531 145.996094 75.695313 C 147.964844 71.507813 152.332031 65.339844 145.894531 58.207031 C 140.707031 53.007813 134.757813 53.871094 130.792969 56.167969 C 133.066406 52.167969 133.914063 46.230469 128.722656 41.03125 C 121.605469 34.632813 115.441406 38.976563 111.253906 40.960938 C 96.808594 47.769531 88.617188 48.15625 79.390625 48.15625 C 70.171875 48.15625 61.960938 47.769531 47.53125 40.960938 C 43.324219 38.976563 37.15625 34.632813 30.03125 41.03125 C 24.835938 46.230469 25.695313 52.167969 27.957031 56.167969 C 23.992188 53.867188 18.042969 53.007813 12.839844 58.207031 C 6.457031 65.351563 10.785156 71.496094 12.769531 75.695313 C 19.59375 90.144531 19.964844 98.351563 19.964844 107.5625 C 19.964844 116.773438 19.59375 124.992188 12.769531 139.441406 C 10.785156 143.613281 6.457031 149.785156 12.839844 156.917969 C 18.042969 162.117188 23.992188 161.246094 27.957031 158.972656 C 25.695313 162.953125 24.835938 168.890625 30.03125 174.09375 C 37.15625 180.5 43.324219 176.152344 47.515625 174.171875 C 61.960938 167.347656 70.152344 166.980469 79.390625 166.980469 C 88.617188 166.980469 96.808594 167.347656 111.253906 174.171875 C 115.441406 176.152344 121.605469 180.5 128.722656 174.09375 C 133.914063 168.890625 133.066406 162.953125 130.777344 158.972656 C 134.757813 161.246094 140.707031 162.121094 145.894531 156.917969 C 152.332031 149.785156 147.964844 143.632813 145.996094 139.445313 C 139.164063 124.980469 138.820313 116.789063 138.820313 107.5625 "/>
<path style=" stroke:none;fill-rule:nonzero;fill:rgb(100%,100%,100%);fill-opacity:1;" d="M 122.976563 151.292969 L 89.128906 122.878906 C 89.128906 122.878906 84.566406 118.421875 79.371094 118.421875 C 74.210938 118.421875 69.621094 122.878906 69.621094 122.878906 L 35.789063 151.292969 L 35.664063 151.1875 L 64.066406 117.324219 C 64.066406 117.324219 68.539063 112.75 68.539063 107.574219 C 68.539063 102.414063 64.066406 97.816406 64.066406 97.816406 L 35.664063 63.957031 L 35.757813 63.835938 L 69.621094 92.265625 C 69.621094 92.265625 74.210938 96.734375 79.371094 96.734375 C 84.566406 96.734375 89.164063 92.265625 89.164063 92.265625 L 122.976563 63.863281 L 123.101563 63.96875 L 94.683594 97.816406 C 94.683594 97.816406 90.234375 102.402344 90.234375 107.574219 C 90.234375 112.75 94.683594 117.324219 94.683594 117.324219 L 123.101563 151.175781 L 122.976563 151.292969 "/>
</g>
</svg>
